<svg width="60" height="60" viewBox="0 0 60 60" fill="none" xmlns="http://www.w3.org/2000/svg">
<g clip-path="url(#clip0_3_4356)">
<path d="M17.9591 32.1495C18.6663 30.5215 18.5175 29.7727 17.2779 28.6351C15.7366 27.2686 14.6289 25.481 14.0914 23.4927C13.9326 22.7405 13.4919 22.0777 12.8596 21.6403C10.5526 19.9966 10.0385 17.1501 11.5208 14.7106C11.7583 14.3166 11.9123 13.9905 11.7818 13.5131C10.5683 9.19246 13.011 4.16742 18.2331 2.10626C21.2483 0.937729 24.4953 0.490972 27.7142 0.801737C29.6376 0.968717 31.2296 1.72795 31.9838 3.71083C32.3365 4.55772 32.9547 5.26727 33.7453 5.73285C36.8614 7.77052 37.4355 9.47684 36.3107 13.0382C36.1828 13.4426 36.0341 13.7635 36.3707 14.2279C38.1975 16.7483 37.6626 20.0331 35.1076 21.8672C34.6832 22.1601 34.3791 22.5966 34.2516 23.0961C33.6089 25.4178 32.2821 27.4924 30.444 29.05C29.6611 29.7257 29.6037 32.0582 30.3005 32.7887C30.6528 33.1566 30.8903 32.8331 31.0364 32.6322C32.4901 30.6467 34.5074 30.9128 36.4856 31.3277C41.966 32.5122 45.8545 35.6117 47.5273 41.0725C49.2132 46.5802 49.3542 52.2914 49.3985 57.9896C49.3985 59.1637 48.6861 59.2941 47.7544 59.2941C39.0135 59.2802 30.2718 59.2802 21.5292 59.2941C14.9631 59.2941 8.39611 59.2941 1.82828 59.2941C0.111073 59.2941 -0.0168044 59.1689 0.00146374 57.4156C0.0458292 52.5341 0.306803 47.676 1.35331 42.8936C2.86956 35.9535 8.13862 31.4138 14.9239 31.0903C16.2497 31.0276 16.2497 31.0276 17.9591 32.1495ZM25.1202 57.3791C29.3401 57.3791 33.5574 57.3452 37.7748 57.4026C38.8187 57.4026 39.1083 57.113 39.0796 56.098C39.0118 53.3168 39.0561 50.5329 39.0588 47.7491C39.0588 47.2272 39.0196 46.6872 39.5807 46.3767C40.3167 45.9723 40.956 46.5045 40.9639 47.6134C40.9874 50.5251 40.9952 53.4394 40.9639 56.3511C40.9639 57.1338 41.1779 57.4313 41.9947 57.3947C43.5136 57.3373 45.0377 57.3634 46.5591 57.3947C47.1307 57.3947 47.4647 57.2669 47.4438 56.612C47.2716 51.3548 47.1959 46.0793 45.4474 41.0307C44.1112 37.1667 41.2718 34.8473 37.472 33.5689C36.723 33.3079 36.3055 33.4593 35.9062 34.1715C34.3195 36.9189 32.6753 39.6349 31.0234 42.3431C30.6588 42.9242 30.4703 43.5984 30.4806 44.2842C30.5067 47.5456 30.4988 50.8069 30.4806 54.0656C30.4806 55.6023 30.2666 55.8163 28.7607 55.8215C25.9353 55.8215 23.1081 55.8215 20.2791 55.8215C18.6167 55.8215 18.4653 55.678 18.4523 54.0578C18.4523 50.9269 18.4288 47.796 18.4523 44.6652C18.4828 43.7995 18.2538 42.9446 17.7946 42.21C16.1949 39.6219 14.6029 37.0258 13.1128 34.3829C12.5908 33.4619 12.0689 33.4358 11.2259 33.7671C7.12082 35.4135 4.4354 38.3095 3.40456 42.6692C2.32935 47.1803 2.08664 51.7748 1.91179 56.385C1.88047 57.2278 2.22235 57.4104 2.97917 57.3895C4.67289 57.3478 6.37183 57.3373 8.06555 57.3895C8.90588 57.4182 9.19295 57.1704 9.17729 56.2989C9.12771 53.4733 9.16163 50.6477 9.15641 47.8195C9.15641 47.0864 9.20339 46.2932 10.1246 46.2671C11.0459 46.241 11.1163 47.0498 11.1189 47.7804C11.1189 50.5199 11.1659 53.2594 11.0981 55.9963C11.072 57.0556 11.359 57.4156 12.4656 57.4C16.6829 57.3295 20.9028 57.3791 25.1202 57.3791ZM24.3529 29.4126C24.486 29.4126 24.7913 29.3944 25.0915 29.3448C29.3427 28.6612 31.4514 25.7834 32.5762 21.9507C32.798 21.1915 33.0981 20.6984 33.8497 20.3096C35.8905 19.2504 36.0732 16.3961 34.2386 15.1359C33.8132 14.8437 33.6279 14.4158 33.4165 13.9931C32.652 12.479 31.6748 11.0821 30.5145 9.84472C30.2274 9.53946 29.9012 8.98112 29.3453 9.51598C28.1448 10.6796 26.6495 10.7683 25.0967 10.7475C22.5339 10.7188 19.9633 10.6901 17.4319 11.1492C15.7956 11.4415 14.4881 12.2137 14.2558 14.0923C14.1689 14.5187 13.9508 14.9073 13.6321 15.2037C12.0036 16.9883 12.3977 19.2895 14.556 20.3905C15.3258 20.7819 15.5685 21.3141 15.7277 22.0916C16.5994 26.3705 20.1382 29.4126 24.3529 29.4126ZM13.4781 11.0762C15.5659 9.17419 17.8338 8.98895 20.099 8.90546C21.9624 8.82719 23.831 8.84284 25.6969 8.83241C26.639 8.83241 27.4976 8.64716 28.1892 7.93228C29.3479 6.73473 29.6924 6.71386 31.0025 7.69747C32.203 8.6002 33.0564 9.80297 33.9124 11.0084C34.1159 11.2927 34.1733 11.7545 34.6483 11.7911C35.2355 9.90995 35.0215 8.98895 33.3643 7.85923C31.8872 6.85474 30.6476 5.72763 29.9717 4.03957C29.6846 3.31947 29.0191 2.99595 28.3301 2.89681C23.9875 2.32803 19.8328 2.80027 16.2392 5.56848C14.6134 6.82344 13.6399 8.54019 13.4781 11.0762ZM34.1864 33.2297C33.3826 32.9009 33.0799 33.441 32.7197 33.7515C30.6006 35.6196 28.4928 37.4998 26.3963 39.3923C24.4625 41.1534 24.4782 41.1534 22.5391 39.327C20.5531 37.4433 18.5515 35.5752 16.5655 33.6941C16.0696 33.2245 15.5842 32.8174 14.8117 33.2323C14.8532 33.3964 14.91 33.5562 14.9813 33.7097C16.5159 36.2823 18.0739 38.8444 19.5875 41.4299C19.9137 41.9857 20.347 42.0483 20.8924 42.0431C22.6305 42.0431 24.392 41.863 26.1119 42.0822C28.2962 42.364 29.5045 41.5056 30.4623 39.6114C31.5506 37.4172 32.9207 35.3691 34.1864 33.2297ZM20.3548 48.9544C20.3548 50.3007 20.3835 51.6444 20.3548 52.988C20.3365 53.6586 20.5662 53.9169 21.2447 53.909C23.3325 53.8803 25.4203 53.8725 27.4924 53.909C28.3067 53.9247 28.5363 53.5986 28.5363 52.8315C28.5033 50.2224 28.5033 47.6195 28.5363 45.0226C28.5363 44.2242 28.2753 43.9633 27.4924 43.979C25.4542 44.0181 23.4134 44.0259 21.3752 43.979C20.5453 43.9607 20.3443 44.2947 20.3731 45.0539C20.407 46.3506 20.3704 47.6551 20.3704 48.9544H20.3548ZM28.7294 34.1559C28.3184 33.3384 28.0535 32.4555 27.9465 31.5468C27.8839 30.7485 27.5811 30.7641 26.9548 30.952C25.4108 31.425 23.7716 31.4969 22.192 31.1607C20.4409 30.8189 20.4383 30.8137 19.9973 32.5644C19.8381 33.1984 19.397 33.8011 20.146 34.4429C21.4274 35.5413 22.6383 36.731 23.8518 37.9077C24.2668 38.3095 24.5852 38.406 25.0523 37.9703C26.1327 36.9684 27.2549 36.0109 28.3536 35.0273C28.5989 34.8342 28.886 34.6568 28.7451 34.1559H28.7294Z" fill="#FA8B02" stroke="#FA8B02" stroke-width="0.2"/>
<path d="M42.9369 16.6934V3.6638C42.9369 3.53334 42.9369 3.40289 42.9369 3.27244C42.963 2.5993 43.1561 2.02531 43.9625 2.05401C44.6802 2.0801 44.9699 2.62539 44.8629 3.2333C44.6228 4.62915 45.4109 5.32055 46.4079 6.07456C50.6409 9.26283 54.819 12.5241 59.0103 15.7698C59.5113 16.1559 60.216 16.503 59.9367 17.3092C59.6575 18.1153 58.9242 17.9927 58.2717 17.9927H47.9789C44.8942 17.9927 44.8942 17.9927 44.8942 21.1445C44.8942 24.0109 44.8942 26.8809 44.8942 29.7543C44.8942 30.4614 44.9412 31.2937 43.9756 31.3198C42.9056 31.3589 42.9317 30.477 42.9317 29.7256C42.9317 25.3824 42.9334 21.0384 42.9369 16.6934ZM55.7873 15.7333C52.3763 13.1086 49.0019 10.4943 45.5936 7.89046C44.9281 7.36865 44.9047 7.89046 44.9047 8.37053C44.9047 10.5439 44.9438 12.7198 44.8838 14.8932C44.8603 15.8376 45.2283 16.0698 46.1025 16.0568C48.9732 16.0177 51.8439 16.0568 54.7147 16.0359C55.0357 16.0333 55.4036 16.1559 55.7873 15.7333Z" fill="#FA8B02" stroke="#FA8B02" stroke-width="0.2"/>
<path d="M24.5016 45.1191C25.0679 45.1191 25.6342 45.093 26.1979 45.1191C26.319 45.1142 26.4399 45.1339 26.5533 45.1769C26.6666 45.22 26.7701 45.2855 26.8574 45.3696C26.9447 45.4538 27.0141 45.5547 27.0613 45.6663C27.1085 45.778 27.1326 45.898 27.1322 46.0193C27.1494 46.1398 27.1405 46.2627 27.106 46.3794C27.0715 46.4962 27.0122 46.6042 26.9322 46.6961C26.8523 46.7879 26.7534 46.8615 26.6425 46.9117C26.5315 46.9619 26.411 46.9877 26.2892 46.9872C25.0757 47.0316 23.857 47.0264 22.6356 46.9872C22.5138 46.9902 22.3927 46.967 22.2805 46.9194C22.1683 46.8718 22.0676 46.8008 21.9851 46.7111C21.9026 46.6215 21.8402 46.5152 21.802 46.3995C21.7639 46.2838 21.7509 46.1613 21.7639 46.0401C21.7585 45.9188 21.7782 45.7977 21.8217 45.6844C21.8652 45.5711 21.9317 45.4679 22.017 45.3815C22.1022 45.295 22.2044 45.2271 22.3172 45.182C22.4299 45.1368 22.5507 45.1154 22.6721 45.1191C23.2854 45.0957 23.8935 45.1217 24.5016 45.1191Z" fill="#FA8B02" stroke="#FA8B02" stroke-width="0.2"/>
<path d="M24.4991 49.865C23.8911 49.865 23.283 49.8885 22.6723 49.865C22.5511 49.8688 22.4305 49.8474 22.3181 49.8022C22.2056 49.757 22.1037 49.689 22.0188 49.6025C21.934 49.5159 21.868 49.4127 21.8251 49.2994C21.7821 49.1861 21.7631 49.0651 21.7693 48.944C21.7563 48.823 21.7692 48.7006 21.8074 48.585C21.8456 48.4694 21.908 48.3633 21.9906 48.2739C22.0732 48.1844 22.1739 48.1136 22.2861 48.0663C22.3983 48.019 22.5193 47.9962 22.641 47.9996C23.8136 47.9682 24.9863 47.9682 26.1589 47.9996C26.767 48.0126 27.148 48.3596 27.1271 48.9884C27.1062 49.5493 26.7357 49.8494 26.1902 49.8781C25.6448 49.9068 25.0654 49.8676 24.4991 49.865Z" fill="#FA8B02" stroke="#FA8B02" stroke-width="0.2"/>
<path d="M24.4024 52.7219C23.8413 52.7219 23.2776 52.7219 22.7139 52.7219C22.5935 52.7302 22.4727 52.7135 22.359 52.6728C22.2454 52.6321 22.1414 52.5683 22.0537 52.4855C21.9659 52.4027 21.8962 52.3025 21.8491 52.1915C21.8019 52.0804 21.7783 51.9607 21.7796 51.8401C21.7605 51.7203 21.7679 51.5977 21.8013 51.4811C21.8347 51.3645 21.8933 51.2566 21.9729 51.1651C22.0526 51.0735 22.1513 51.0005 22.2622 50.9513C22.3731 50.902 22.4934 50.8777 22.6147 50.8799C23.8257 50.846 25.0418 50.8486 26.2527 50.8799C26.3739 50.8744 26.4948 50.8951 26.6072 50.9405C26.7196 50.986 26.8209 51.0552 26.9042 51.1434C26.9874 51.2315 27.0506 51.3366 27.0895 51.4515C27.1284 51.5663 27.1421 51.6882 27.1296 51.8088C27.1351 51.9292 27.1155 52.0496 27.072 52.1621C27.0285 52.2746 26.962 52.3768 26.8769 52.4622C26.7917 52.5476 26.6896 52.6143 26.5772 52.6581C26.4648 52.702 26.3445 52.7219 26.224 52.7167C25.6186 52.748 25.0105 52.7167 24.3972 52.7167L24.4024 52.7219Z" fill="#FA8B02" stroke="#FA8B02" stroke-width="0.2"/>
</g>
<defs>
<clipPath id="clip0_3_4356">
<rect width="60" height="60" fill="white"/>
</clipPath>
</defs>
</svg>
